<svg width="28" height="28" viewBox="0 0 24 24" fill="none" xmlns="http://www.w3.org/2000/svg">
  <path
    d="M5.25 15.75H4.5C3.25736 15.75 2.25 14.7426 2.25 13.5V6.5C2.25 5.25736 3.25736 4.25 4.5 4.25H11.5C12.7426 4.25 13.75 5.25736 13.75 6.5V7.25"
    stroke="#E5E5E5"
    stroke-width="1.75"
    stroke-linecap="round"
    stroke-linejoin="round"
  />
  <path
    d="M6.75 10.5C6.75 9.25736 7.75736 8.25 9 8.25H18C19.2426 8.25 20.25 9.25736 20.25 10.5V15.5C20.25 16.7426 19.2426 17.75 18 17.75H12.5L8.75 20.5V17.75H9C7.75736 17.75 6.75 16.7426 6.75 15.5V10.5Z"
    stroke="#E5E5E5"
    stroke-width="1.75"
    stroke-linecap="round"
    stroke-linejoin="round"
  />
  <path
    d="M10.5 12.25H16.5"
    stroke="#E5E5E5"
    stroke-width="1.75"
    stroke-linecap="round"
  />
  <path
    d="M10.5 14.75H14.5"
    stroke="#E5E5E5"
    stroke-width="1.75"
    stroke-linecap="round"
  />
</svg>
