<svg width="128" height="128" viewBox="0 0 128 128" fill="none" xmlns="http://www.w3.org/2000/svg">
  <path
    d="M93.8898 18.8554C97.9501 16.2122 103.25 19.1259 103.25 23.971V104.029C103.25 108.874 97.9501 111.788 93.8898 109.145L40.0618 74.4132C37.2167 72.5781 37.2167 68.4219 40.0618 66.5868L93.8898 31.8554V18.8554Z"
    fill="#007ACC"
  />
  <path
    d="M93.8898 31.8554L39.7919 66.7611C37.1616 68.4592 37.1476 72.2946 39.7653 74.0118L93.8898 109.145C97.9501 111.788 103.25 108.874 103.25 104.029V36.971C103.25 32.1259 97.9501 29.2122 93.8898 31.8554Z"
    fill="#1F9CF0"
  />
  <path
    d="M20.4904 45.1895C17.7315 42.9593 13.6874 43.1255 11.1214 45.5803L5.84924 50.6212C2.9678 53.3766 3.10977 58.0227 6.15765 60.5969L23.8086 75.5051L6.15765 90.4133C3.10977 92.9875 2.9678 97.6336 5.84924 100.389L11.1214 105.43C13.6874 107.884 17.7315 108.051 20.4904 105.821L52.9105 79.6233C56.1609 76.9973 56.1609 74.0027 52.9105 71.3767L20.4904 45.1895Z"
    fill="#50B7FF"
  />
  <path
    d="M40.0618 61.5868C37.2167 63.4219 37.2167 67.5781 40.0618 69.4132L93.8898 104.145C97.9501 106.788 103.25 103.874 103.25 99.029V90.9236L52.4826 58.7526L40.0618 61.5868Z"
    fill="#007ACC"
    fill-opacity="0.22"
  />
</svg>
